<?xml version="1.0" encoding="UTF-8" standalone="no"?>
<!DOCTYPE svg PUBLIC "-//W3C//DTD SVG 1.1//EN"
 "http://www.w3.org/Graphics/SVG/1.1/DTD/svg11.dtd">
<!-- Generated by graphviz version 2.36.0 (20140111.2315)
 -->
<!-- Title: IPopupMenu.h Pages: 1 -->
<svg width="1367pt" height="308pt"
 viewBox="0.00 0.00 1366.71 308.00" xmlns="http://www.w3.org/2000/svg" xmlns:xlink="http://www.w3.org/1999/xlink">
<g id="graph0" class="graph" transform="scale(1 1) rotate(0) translate(4 304)">
<title>IPopupMenu.h</title>
<polygon fill="white" stroke="none" points="-4,4 -4,-304 1362.71,-304 1362.71,4 -4,4"/>
<!-- Node1 -->
<g id="node1" class="node"><title>Node1</title>
<polygon fill="#bfbfbf" stroke="black" points="477.71,-280.5 477.71,-299.5 557.71,-299.5 557.71,-280.5 477.71,-280.5"/>
<text text-anchor="middle" x="517.71" y="-287.5" font-family="Helvetica,sans-Serif" font-size="10.00">IPopupMenu.h</text>
</g>
<!-- Node2 -->
<g id="node2" class="node"><title>Node2</title>
<g id="a_node2"><a xlink:href="_i_graphics_8h.html" target="_top" xlink:title="The lowest level base class of an IGraphics context. ">
<polygon fill="white" stroke="black" points="484.21,-224.5 484.21,-243.5 551.21,-243.5 551.21,-224.5 484.21,-224.5"/>
<text text-anchor="middle" x="517.71" y="-231.5" font-family="Helvetica,sans-Serif" font-size="10.00">IGraphics.h</text>
</a>
</g>
</g>
<!-- Node1&#45;&gt;Node2 -->
<g id="edge1" class="edge"><title>Node1&#45;&gt;Node2</title>
<path fill="none" stroke="midnightblue" d="M517.71,-269.805C517.71,-260.91 517.71,-250.78 517.71,-243.751"/>
<polygon fill="midnightblue" stroke="midnightblue" points="514.21,-270.083 517.71,-280.083 521.21,-270.083 514.21,-270.083"/>
</g>
<!-- Node3 -->
<g id="node3" class="node"><title>Node3</title>
<g id="a_node3"><a xlink:href="_i_control_8h.html" target="_top" xlink:title="The lowest level base class of an IGraphics control. ">
<polygon fill="white" stroke="black" points="274.21,-168.5 274.21,-187.5 333.21,-187.5 333.21,-168.5 274.21,-168.5"/>
<text text-anchor="middle" x="303.71" y="-175.5" font-family="Helvetica,sans-Serif" font-size="10.00">IControl.h</text>
</a>
</g>
</g>
<!-- Node2&#45;&gt;Node3 -->
<g id="edge2" class="edge"><title>Node2&#45;&gt;Node3</title>
<path fill="none" stroke="midnightblue" d="M473.858,-221.935C431.893,-211.345 369.748,-195.664 333.325,-186.473"/>
<polygon fill="midnightblue" stroke="midnightblue" points="473.249,-225.39 483.801,-224.444 474.961,-218.603 473.249,-225.39"/>
</g>
<!-- Node8 -->
<g id="node8" class="node"><title>Node8</title>
<g id="a_node8"><a xlink:href="_i_graphics_8cpp_source.html" target="_top" xlink:title="IGraphics.cpp">
<polygon fill="white" stroke="black" points="26.21,-56.5 26.21,-75.5 103.21,-75.5 103.21,-56.5 26.21,-56.5"/>
<text text-anchor="middle" x="64.71" y="-63.5" font-family="Helvetica,sans-Serif" font-size="10.00">IGraphics.cpp</text>
</a>
</g>
</g>
<!-- Node2&#45;&gt;Node8 -->
<g id="edge13" class="edge"><title>Node2&#45;&gt;Node8</title>
<path fill="none" stroke="midnightblue" d="M473.879,-231.295C360.725,-225.877 63.5385,-204.848 4.71005,-132 -12.4645,-110.732 23.2519,-87.6152 46.6109,-75.5025"/>
<polygon fill="midnightblue" stroke="midnightblue" points="473.775,-234.794 483.925,-231.758 474.097,-227.802 473.775,-234.794"/>
</g>
<!-- Node12 -->
<g id="node12" class="node"><title>Node12</title>
<g id="a_node12"><a xlink:href="_i_plug_base_graphics_8cpp_source.html" target="_top" xlink:title="IPlugBaseGraphics.cpp">
<polygon fill="white" stroke="black" points="458.21,-112.5 458.21,-131.5 577.21,-131.5 577.21,-112.5 458.21,-112.5"/>
<text text-anchor="middle" x="517.71" y="-119.5" font-family="Helvetica,sans-Serif" font-size="10.00">IPlugBaseGraphics.cpp</text>
</a>
</g>
</g>
<!-- Node2&#45;&gt;Node12 -->
<g id="edge33" class="edge"><title>Node2&#45;&gt;Node12</title>
<path fill="none" stroke="midnightblue" d="M517.71,-214.348C517.71,-190.254 517.71,-149.308 517.71,-131.591"/>
<polygon fill="midnightblue" stroke="midnightblue" points="514.21,-214.368 517.71,-224.368 521.21,-214.369 514.21,-214.368"/>
</g>
<!-- Node13 -->
<g id="node13" class="node"><title>Node13</title>
<g id="a_node13"><a xlink:href="_i_graphics_path_base_8h_source.html" target="_top" xlink:title="IGraphicsPathBase.h">
<polygon fill="white" stroke="black" points="1077.71,-168.5 1077.71,-187.5 1187.71,-187.5 1187.71,-168.5 1077.71,-168.5"/>
<text text-anchor="middle" x="1132.71" y="-175.5" font-family="Helvetica,sans-Serif" font-size="10.00">IGraphicsPathBase.h</text>
</a>
</g>
</g>
<!-- Node2&#45;&gt;Node13 -->
<g id="edge14" class="edge"><title>Node2&#45;&gt;Node13</title>
<path fill="none" stroke="midnightblue" d="M561.234,-229.178C670.617,-219.574 956.882,-194.439 1077.67,-183.832"/>
<polygon fill="midnightblue" stroke="midnightblue" points="560.867,-225.697 551.212,-230.058 561.48,-232.67 560.867,-225.697"/>
</g>
<!-- Node20 -->
<g id="node20" class="node"><title>Node20</title>
<g id="a_node20"><a xlink:href="_i_graphics_lice_8h_source.html" target="_top" xlink:title="IGraphicsLice.h">
<polygon fill="white" stroke="black" points="703.21,-168.5 703.21,-187.5 788.21,-187.5 788.21,-168.5 703.21,-168.5"/>
<text text-anchor="middle" x="745.71" y="-175.5" font-family="Helvetica,sans-Serif" font-size="10.00">IGraphicsLice.h</text>
</a>
</g>
</g>
<!-- Node2&#45;&gt;Node20 -->
<g id="edge21" class="edge"><title>Node2&#45;&gt;Node20</title>
<path fill="none" stroke="midnightblue" d="M561.258,-222.686C604.316,-212.488 669.43,-197.066 709.669,-187.536"/>
<polygon fill="midnightblue" stroke="midnightblue" points="560.276,-219.322 551.352,-225.032 561.89,-226.133 560.276,-219.322"/>
</g>
<!-- Node4 -->
<g id="node4" class="node"><title>Node4</title>
<g id="a_node4"><a xlink:href="_i_control_8cpp_source.html" target="_top" xlink:title="IControl.cpp">
<polygon fill="white" stroke="black" points="369.71,-112.5 369.71,-131.5 439.71,-131.5 439.71,-112.5 369.71,-112.5"/>
<text text-anchor="middle" x="404.71" y="-119.5" font-family="Helvetica,sans-Serif" font-size="10.00">IControl.cpp</text>
</a>
</g>
</g>
<!-- Node3&#45;&gt;Node4 -->
<g id="edge3" class="edge"><title>Node3&#45;&gt;Node4</title>
<path fill="none" stroke="midnightblue" d="M328.793,-163.59C347.467,-153.605 372.414,-140.267 388.523,-131.655"/>
<polygon fill="midnightblue" stroke="midnightblue" points="327.106,-160.522 319.937,-168.324 330.406,-166.696 327.106,-160.522"/>
</g>
<!-- Node5 -->
<g id="node5" class="node"><title>Node5</title>
<g id="a_node5"><a xlink:href="_i_controls_8h.html" target="_top" xlink:title="A collection of IControls for common UI widgets, such as knobs, sliders, switches. ">
<polygon fill="white" stroke="black" points="210.21,-112.5 210.21,-131.5 275.21,-131.5 275.21,-112.5 210.21,-112.5"/>
<text text-anchor="middle" x="242.71" y="-119.5" font-family="Helvetica,sans-Serif" font-size="10.00">IControls.h</text>
</a>
</g>
</g>
<!-- Node3&#45;&gt;Node5 -->
<g id="edge4" class="edge"><title>Node3&#45;&gt;Node5</title>
<path fill="none" stroke="midnightblue" d="M286.243,-161.537C275.366,-151.909 261.766,-139.869 252.689,-131.834"/>
<polygon fill="midnightblue" stroke="midnightblue" points="284.102,-164.316 293.909,-168.324 288.742,-159.075 284.102,-164.316"/>
</g>
<!-- Node7 -->
<g id="node7" class="node"><title>Node7</title>
<g id="a_node7"><a xlink:href="_i_graphics_live_edit_8h_source.html" target="_top" xlink:title="IGraphicsLiveEdit.h">
<polygon fill="white" stroke="black" points="13.71,-112.5 13.71,-131.5 115.71,-131.5 115.71,-112.5 13.71,-112.5"/>
<text text-anchor="middle" x="64.71" y="-119.5" font-family="Helvetica,sans-Serif" font-size="10.00">IGraphicsLiveEdit.h</text>
</a>
</g>
</g>
<!-- Node3&#45;&gt;Node7 -->
<g id="edge6" class="edge"><title>Node3&#45;&gt;Node7</title>
<path fill="none" stroke="midnightblue" d="M263.953,-168.017C219.018,-157.864 146.409,-141.459 102.361,-131.507"/>
<polygon fill="midnightblue" stroke="midnightblue" points="263.398,-171.48 273.924,-170.27 264.941,-164.652 263.398,-171.48"/>
</g>
<!-- Node3&#45;&gt;Node8 -->
<g id="edge8" class="edge"><title>Node3&#45;&gt;Node8</title>
<path fill="none" stroke="midnightblue" d="M264.27,-166.71C236.583,-158.827 199.054,-146.804 167.71,-132 132.53,-115.384 94.7112,-89.0745 76.2211,-75.5897"/>
<polygon fill="midnightblue" stroke="midnightblue" points="263.423,-170.107 273.995,-169.424 265.304,-163.364 263.423,-170.107"/>
</g>
<!-- Node9 -->
<g id="node9" class="node"><title>Node9</title>
<g id="a_node9"><a xlink:href="_i_graphics_mac_8mm_source.html" target="_top" xlink:title="IGraphicsMac.mm">
<polygon fill="white" stroke="black" points="739.21,-0.5 739.21,-19.5 836.21,-19.5 836.21,-0.5 739.21,-0.5"/>
<text text-anchor="middle" x="787.71" y="-7.5" font-family="Helvetica,sans-Serif" font-size="10.00">IGraphicsMac.mm</text>
</a>
</g>
</g>
<!-- Node3&#45;&gt;Node9 -->
<g id="edge9" class="edge"><title>Node3&#45;&gt;Node9</title>
<path fill="none" stroke="midnightblue" d="M307.572,-158.301C311.599,-143.551 319.394,-123.593 333.71,-112 396.07,-61.5028 635.248,-28.537 739.106,-16.318"/>
<polygon fill="midnightblue" stroke="midnightblue" points="304.093,-157.803 305.183,-168.341 310.903,-159.423 304.093,-157.803"/>
</g>
<!-- Node10 -->
<g id="node10" class="node"><title>Node10</title>
<g id="a_node10"><a xlink:href="_i_graphics_mac__view_8mm_source.html" target="_top" xlink:title="IGraphicsMac_view.mm">
<polygon fill="white" stroke="black" points="380.71,-0.5 380.71,-19.5 502.71,-19.5 502.71,-0.5 380.71,-0.5"/>
<text text-anchor="middle" x="441.71" y="-7.5" font-family="Helvetica,sans-Serif" font-size="10.00">IGraphicsMac_view.mm</text>
</a>
</g>
</g>
<!-- Node3&#45;&gt;Node10 -->
<g id="edge10" class="edge"><title>Node3&#45;&gt;Node10</title>
<path fill="none" stroke="midnightblue" d="M264.31,-170.663C241.569,-164.765 214.765,-153.478 200.71,-132 182.215,-103.736 179.129,-81.9842 200.71,-56 223.146,-28.9873 316.777,-18.1017 380.508,-13.776"/>
<polygon fill="midnightblue" stroke="midnightblue" points="263.551,-174.08 274.084,-172.943 265.141,-167.263 263.551,-174.08"/>
</g>
<!-- Node11 -->
<g id="node11" class="node"><title>Node11</title>
<g id="a_node11"><a xlink:href="_i_graphics_win_8cpp_source.html" target="_top" xlink:title="IGraphicsWin.cpp">
<polygon fill="white" stroke="black" points="590.21,-56.5 590.21,-75.5 685.21,-75.5 685.21,-56.5 590.21,-56.5"/>
<text text-anchor="middle" x="637.71" y="-63.5" font-family="Helvetica,sans-Serif" font-size="10.00">IGraphicsWin.cpp</text>
</a>
</g>
</g>
<!-- Node3&#45;&gt;Node11 -->
<g id="edge11" class="edge"><title>Node3&#45;&gt;Node11</title>
<path fill="none" stroke="midnightblue" d="M314.011,-159.611C323.965,-144.457 340.488,-123.204 360.71,-112 399.225,-90.6602 521.441,-77.0214 589.962,-70.8472"/>
<polygon fill="midnightblue" stroke="midnightblue" points="311.028,-157.78 308.687,-168.113 316.961,-161.494 311.028,-157.78"/>
</g>
<!-- Node3&#45;&gt;Node12 -->
<g id="edge12" class="edge"><title>Node3&#45;&gt;Node12</title>
<path fill="none" stroke="midnightblue" d="M343.248,-167.023C383.674,-156.822 445.799,-141.146 483.978,-131.512"/>
<polygon fill="midnightblue" stroke="midnightblue" points="342.306,-163.651 333.466,-169.492 344.018,-170.438 342.306,-163.651"/>
</g>
<!-- Node6 -->
<g id="node6" class="node"><title>Node6</title>
<g id="a_node6"><a xlink:href="_i_controls_8cpp_source.html" target="_top" xlink:title="IControls.cpp">
<polygon fill="white" stroke="black" points="210.21,-56.5 210.21,-75.5 285.21,-75.5 285.21,-56.5 210.21,-56.5"/>
<text text-anchor="middle" x="247.71" y="-63.5" font-family="Helvetica,sans-Serif" font-size="10.00">IControls.cpp</text>
</a>
</g>
</g>
<!-- Node5&#45;&gt;Node6 -->
<g id="edge5" class="edge"><title>Node5&#45;&gt;Node6</title>
<path fill="none" stroke="midnightblue" d="M244.46,-102.101C245.29,-93.1357 246.242,-82.8579 246.9,-75.7511"/>
<polygon fill="midnightblue" stroke="midnightblue" points="240.973,-101.803 243.536,-112.083 247.943,-102.448 240.973,-101.803"/>
</g>
<!-- Node7&#45;&gt;Node8 -->
<g id="edge7" class="edge"><title>Node7&#45;&gt;Node8</title>
<path fill="none" stroke="midnightblue" d="M64.71,-101.805C64.71,-92.9102 64.71,-82.7798 64.71,-75.7511"/>
<polygon fill="midnightblue" stroke="midnightblue" points="61.2101,-102.083 64.71,-112.083 68.2101,-102.083 61.2101,-102.083"/>
</g>
<!-- Node14 -->
<g id="node14" class="node"><title>Node14</title>
<g id="a_node14"><a xlink:href="_i_graphics_a_g_g_8h_source.html" target="_top" xlink:title="IGraphicsAGG.h">
<polygon fill="white" stroke="black" points="1146.21,-112.5 1146.21,-131.5 1235.21,-131.5 1235.21,-112.5 1146.21,-112.5"/>
<text text-anchor="middle" x="1190.71" y="-119.5" font-family="Helvetica,sans-Serif" font-size="10.00">IGraphicsAGG.h</text>
</a>
</g>
</g>
<!-- Node13&#45;&gt;Node14 -->
<g id="edge15" class="edge"><title>Node13&#45;&gt;Node14</title>
<path fill="none" stroke="midnightblue" d="M1149.62,-161.253C1159.91,-151.673 1172.68,-139.791 1181.22,-131.834"/>
<polygon fill="midnightblue" stroke="midnightblue" points="1146.96,-158.948 1142.03,-168.324 1151.73,-164.071 1146.96,-158.948"/>
</g>
<!-- Node16 -->
<g id="node16" class="node"><title>Node16</title>
<g id="a_node16"><a xlink:href="_i_graphics_cairo_8h_source.html" target="_top" xlink:title="IGraphicsCairo.h">
<polygon fill="white" stroke="black" points="1258.71,-112.5 1258.71,-131.5 1348.71,-131.5 1348.71,-112.5 1258.71,-112.5"/>
<text text-anchor="middle" x="1303.71" y="-119.5" font-family="Helvetica,sans-Serif" font-size="10.00">IGraphicsCairo.h</text>
</a>
</g>
</g>
<!-- Node13&#45;&gt;Node16 -->
<g id="edge17" class="edge"><title>Node13&#45;&gt;Node16</title>
<path fill="none" stroke="midnightblue" d="M1169.75,-165.304C1201.97,-155.129 1247.9,-140.625 1276.74,-131.516"/>
<polygon fill="midnightblue" stroke="midnightblue" points="1168.29,-162.095 1159.81,-168.444 1170.4,-168.77 1168.29,-162.095"/>
</g>
<!-- Node18 -->
<g id="node18" class="node"><title>Node18</title>
<g id="a_node18"><a xlink:href="_i_graphics_nano_v_g_8h_source.html" target="_top" xlink:title="IGraphicsNanoVG.h">
<polygon fill="white" stroke="black" points="1023.71,-112.5 1023.71,-131.5 1127.71,-131.5 1127.71,-112.5 1023.71,-112.5"/>
<text text-anchor="middle" x="1075.71" y="-119.5" font-family="Helvetica,sans-Serif" font-size="10.00">IGraphicsNanoVG.h</text>
</a>
</g>
</g>
<!-- Node13&#45;&gt;Node18 -->
<g id="edge19" class="edge"><title>Node13&#45;&gt;Node18</title>
<path fill="none" stroke="midnightblue" d="M1116.09,-161.253C1105.98,-151.673 1093.43,-139.791 1085.03,-131.834"/>
<polygon fill="midnightblue" stroke="midnightblue" points="1113.89,-163.987 1123.55,-168.324 1118.7,-158.906 1113.89,-163.987"/>
</g>
<!-- Node15 -->
<g id="node15" class="node"><title>Node15</title>
<g id="a_node15"><a xlink:href="_i_graphics_a_g_g_8cpp_source.html" target="_top" xlink:title="IGraphicsAGG.cpp">
<polygon fill="white" stroke="black" points="1141.21,-56.5 1141.21,-75.5 1240.21,-75.5 1240.21,-56.5 1141.21,-56.5"/>
<text text-anchor="middle" x="1190.71" y="-63.5" font-family="Helvetica,sans-Serif" font-size="10.00">IGraphicsAGG.cpp</text>
</a>
</g>
</g>
<!-- Node14&#45;&gt;Node15 -->
<g id="edge16" class="edge"><title>Node14&#45;&gt;Node15</title>
<path fill="none" stroke="midnightblue" d="M1190.71,-101.805C1190.71,-92.9102 1190.71,-82.7798 1190.71,-75.7511"/>
<polygon fill="midnightblue" stroke="midnightblue" points="1187.21,-102.083 1190.71,-112.083 1194.21,-102.083 1187.21,-102.083"/>
</g>
<!-- Node17 -->
<g id="node17" class="node"><title>Node17</title>
<g id="a_node17"><a xlink:href="_i_graphics_cairo_8cpp_source.html" target="_top" xlink:title="IGraphicsCairo.cpp">
<polygon fill="white" stroke="black" points="1258.21,-56.5 1258.21,-75.5 1359.21,-75.5 1359.21,-56.5 1258.21,-56.5"/>
<text text-anchor="middle" x="1308.71" y="-63.5" font-family="Helvetica,sans-Serif" font-size="10.00">IGraphicsCairo.cpp</text>
</a>
</g>
</g>
<!-- Node16&#45;&gt;Node17 -->
<g id="edge18" class="edge"><title>Node16&#45;&gt;Node17</title>
<path fill="none" stroke="midnightblue" d="M1305.46,-102.101C1306.29,-93.1357 1307.24,-82.8579 1307.9,-75.7511"/>
<polygon fill="midnightblue" stroke="midnightblue" points="1301.97,-101.803 1304.54,-112.083 1308.94,-102.448 1301.97,-101.803"/>
</g>
<!-- Node19 -->
<g id="node19" class="node"><title>Node19</title>
<g id="a_node19"><a xlink:href="_i_graphics_nano_v_g_8cpp_source.html" target="_top" xlink:title="IGraphicsNanoVG.cpp">
<polygon fill="white" stroke="black" points="1008.21,-56.5 1008.21,-75.5 1123.21,-75.5 1123.21,-56.5 1008.21,-56.5"/>
<text text-anchor="middle" x="1065.71" y="-63.5" font-family="Helvetica,sans-Serif" font-size="10.00">IGraphicsNanoVG.cpp</text>
</a>
</g>
</g>
<!-- Node18&#45;&gt;Node19 -->
<g id="edge20" class="edge"><title>Node18&#45;&gt;Node19</title>
<path fill="none" stroke="midnightblue" d="M1072.21,-102.101C1070.55,-93.1357 1068.65,-82.8579 1067.33,-75.7511"/>
<polygon fill="midnightblue" stroke="midnightblue" points="1068.8,-102.888 1074.06,-112.083 1075.68,-101.613 1068.8,-102.888"/>
</g>
<!-- Node21 -->
<g id="node21" class="node"><title>Node21</title>
<g id="a_node21"><a xlink:href="_i_graphics_lice_8cpp_source.html" target="_top" xlink:title="IGraphicsLice.cpp">
<polygon fill="white" stroke="black" points="698.21,-112.5 698.21,-131.5 793.21,-131.5 793.21,-112.5 698.21,-112.5"/>
<text text-anchor="middle" x="745.71" y="-119.5" font-family="Helvetica,sans-Serif" font-size="10.00">IGraphicsLice.cpp</text>
</a>
</g>
</g>
<!-- Node20&#45;&gt;Node21 -->
<g id="edge22" class="edge"><title>Node20&#45;&gt;Node21</title>
<path fill="none" stroke="midnightblue" d="M745.71,-157.805C745.71,-148.91 745.71,-138.78 745.71,-131.751"/>
<polygon fill="midnightblue" stroke="midnightblue" points="742.21,-158.083 745.71,-168.083 749.21,-158.083 742.21,-158.083"/>
</g>
<!-- Node22 -->
<g id="node22" class="node"><title>Node22</title>
<g id="a_node22"><a xlink:href="_i_graphics_linux_8h_source.html" target="_top" xlink:title="IGraphicsLinux.h">
<polygon fill="white" stroke="black" points="811.71,-112.5 811.71,-131.5 901.71,-131.5 901.71,-112.5 811.71,-112.5"/>
<text text-anchor="middle" x="856.71" y="-119.5" font-family="Helvetica,sans-Serif" font-size="10.00">IGraphicsLinux.h</text>
</a>
</g>
</g>
<!-- Node20&#45;&gt;Node22 -->
<g id="edge25" class="edge"><title>Node20&#45;&gt;Node22</title>
<path fill="none" stroke="midnightblue" d="M772.715,-163.862C793.298,-153.849 821.055,-140.346 838.92,-131.655"/>
<polygon fill="midnightblue" stroke="midnightblue" points="771.005,-160.802 763.544,-168.324 774.068,-167.097 771.005,-160.802"/>
</g>
<!-- Node23 -->
<g id="node23" class="node"><title>Node23</title>
<g id="a_node23"><a xlink:href="_i_graphics_mac_8h_source.html" target="_top" xlink:title="IGraphicsMac.h">
<polygon fill="white" stroke="black" points="919.71,-112.5 919.71,-131.5 1005.71,-131.5 1005.71,-112.5 919.71,-112.5"/>
<text text-anchor="middle" x="962.71" y="-119.5" font-family="Helvetica,sans-Serif" font-size="10.00">IGraphicsMac.h</text>
</a>
</g>
</g>
<!-- Node20&#45;&gt;Node23 -->
<g id="edge26" class="edge"><title>Node20&#45;&gt;Node23</title>
<path fill="none" stroke="midnightblue" d="M789.818,-166.024C830.81,-155.823 891.014,-140.841 928.487,-131.516"/>
<polygon fill="midnightblue" stroke="midnightblue" points="788.953,-162.632 780.094,-168.444 790.644,-169.425 788.953,-162.632"/>
</g>
<!-- Node25 -->
<g id="node25" class="node"><title>Node25</title>
<g id="a_node25"><a xlink:href="_i_graphics_win_8h_source.html" target="_top" xlink:title="IGraphicsWin.h">
<polygon fill="white" stroke="black" points="595.71,-112.5 595.71,-131.5 679.71,-131.5 679.71,-112.5 595.71,-112.5"/>
<text text-anchor="middle" x="637.71" y="-119.5" font-family="Helvetica,sans-Serif" font-size="10.00">IGraphicsWin.h</text>
</a>
</g>
</g>
<!-- Node20&#45;&gt;Node25 -->
<g id="edge31" class="edge"><title>Node20&#45;&gt;Node25</title>
<path fill="none" stroke="midnightblue" d="M719.162,-163.726C699.164,-153.727 672.323,-140.307 655.019,-131.655"/>
<polygon fill="midnightblue" stroke="midnightblue" points="717.848,-166.982 728.358,-168.324 720.979,-160.721 717.848,-166.982"/>
</g>
<!-- Node21&#45;&gt;Node9 -->
<g id="edge23" class="edge"><title>Node21&#45;&gt;Node9</title>
<path fill="none" stroke="midnightblue" d="M750.087,-102.654C753.471,-89.4617 758.601,-71.3633 764.71,-56 769.897,-42.9552 777.584,-28.6383 782.621,-19.735"/>
<polygon fill="midnightblue" stroke="midnightblue" points="746.676,-101.867 747.672,-112.415 753.471,-103.548 746.676,-101.867"/>
</g>
<!-- Node21&#45;&gt;Node11 -->
<g id="edge24" class="edge"><title>Node21&#45;&gt;Node11</title>
<path fill="none" stroke="midnightblue" d="M719.162,-107.726C699.164,-97.7271 672.323,-84.3065 655.019,-75.6545"/>
<polygon fill="midnightblue" stroke="midnightblue" points="717.848,-110.982 728.358,-112.324 720.979,-104.721 717.848,-110.982"/>
</g>
<!-- Node23&#45;&gt;Node9 -->
<g id="edge27" class="edge"><title>Node23&#45;&gt;Node9</title>
<path fill="none" stroke="midnightblue" d="M948.636,-104.814C935.539,-90.5146 914.904,-69.8409 893.71,-56 868.936,-39.8214 837.379,-27.3091 815.162,-19.6312"/>
<polygon fill="midnightblue" stroke="midnightblue" points="946.145,-107.28 955.423,-112.396 951.361,-102.611 946.145,-107.28"/>
</g>
<!-- Node24 -->
<g id="node24" class="node"><title>Node24</title>
<g id="a_node24"><a xlink:href="_i_graphics_mac__view_8h_source.html" target="_top" xlink:title="IGraphicsMac_view.h">
<polygon fill="white" stroke="black" points="774.21,-56.5 774.21,-75.5 885.21,-75.5 885.21,-56.5 774.21,-56.5"/>
<text text-anchor="middle" x="829.71" y="-63.5" font-family="Helvetica,sans-Serif" font-size="10.00">IGraphicsMac_view.h</text>
</a>
</g>
</g>
<!-- Node23&#45;&gt;Node24 -->
<g id="edge28" class="edge"><title>Node23&#45;&gt;Node24</title>
<path fill="none" stroke="midnightblue" d="M932.262,-108.638C907.303,-98.504 872.633,-84.4274 850.686,-75.5164"/>
<polygon fill="midnightblue" stroke="midnightblue" points="931.054,-111.924 941.636,-112.444 933.687,-105.439 931.054,-111.924"/>
</g>
<!-- Node24&#45;&gt;Node9 -->
<g id="edge29" class="edge"><title>Node24&#45;&gt;Node9</title>
<path fill="none" stroke="midnightblue" d="M816.6,-48.144C809.282,-38.7357 800.469,-27.4046 794.516,-19.7511"/>
<polygon fill="midnightblue" stroke="midnightblue" points="813.872,-50.3383 822.775,-56.083 819.398,-46.0406 813.872,-50.3383"/>
</g>
<!-- Node24&#45;&gt;Node10 -->
<g id="edge30" class="edge"><title>Node24&#45;&gt;Node10</title>
<path fill="none" stroke="midnightblue" d="M764.122,-55.8718C691.139,-45.7143 574.14,-29.431 502.959,-19.5243"/>
<polygon fill="midnightblue" stroke="midnightblue" points="763.732,-59.3512 774.119,-57.2631 764.697,-52.418 763.732,-59.3512"/>
</g>
<!-- Node25&#45;&gt;Node11 -->
<g id="edge32" class="edge"><title>Node25&#45;&gt;Node11</title>
<path fill="none" stroke="midnightblue" d="M637.71,-101.805C637.71,-92.9102 637.71,-82.7798 637.71,-75.7511"/>
<polygon fill="midnightblue" stroke="midnightblue" points="634.21,-102.083 637.71,-112.083 641.21,-102.083 634.21,-102.083"/>
</g>
</g>
</svg>
