<?xml version="1.0" encoding="UTF-8" standalone="no"?>
<!DOCTYPE svg PUBLIC "-//W3C//DTD SVG 1.1//EN"
 "http://www.w3.org/Graphics/SVG/1.1/DTD/svg11.dtd">
<!-- Generated by graphviz version 2.36.0 (20140111.2315)
 -->
<!-- Title: IGraphics Pages: 1 -->
<svg width="491pt" height="140pt"
 viewBox="0.00 0.00 491.00 140.00" xmlns="http://www.w3.org/2000/svg" xmlns:xlink="http://www.w3.org/1999/xlink">
<g id="graph0" class="graph" transform="scale(1 1) rotate(0) translate(4 136)">
<title>IGraphics</title>
<polygon fill="white" stroke="none" points="-4,4 -4,-136 487,-136 487,4 -4,4"/>
<!-- Node1 -->
<g id="node1" class="node"><title>Node1</title>
<polygon fill="#bfbfbf" stroke="black" points="178.5,-112.5 178.5,-131.5 237.5,-131.5 237.5,-112.5 178.5,-112.5"/>
<text text-anchor="middle" x="208" y="-119.5" font-family="Helvetica,sans-Serif" font-size="10.00">IGraphics</text>
</g>
<!-- Node2 -->
<g id="node2" class="node"><title>Node2</title>
<g id="a_node2"><a xlink:href="class_i_graphics_lice.html" target="_top" xlink:title="IGraphics draw class using Cockos&#39; LICE. ">
<polygon fill="white" stroke="black" points="94.5,-56.5 94.5,-75.5 171.5,-75.5 171.5,-56.5 94.5,-56.5"/>
<text text-anchor="middle" x="133" y="-63.5" font-family="Helvetica,sans-Serif" font-size="10.00">IGraphicsLice</text>
</a>
</g>
</g>
<!-- Node1&#45;&gt;Node2 -->
<g id="edge1" class="edge"><title>Node1&#45;&gt;Node2</title>
<path fill="none" stroke="midnightblue" d="M187.695,-106.38C174.139,-96.6204 156.758,-84.1057 145.269,-75.8339"/>
<polygon fill="midnightblue" stroke="midnightblue" points="185.79,-109.321 195.95,-112.324 189.88,-103.641 185.79,-109.321"/>
</g>
<!-- Node5 -->
<g id="node5" class="node"><title>Node5</title>
<g id="a_node5"><a xlink:href="class_i_graphics_path_base.html" target="_top" xlink:title="IGraphicsPathBase">
<polygon fill="white" stroke="black" points="233.5,-56.5 233.5,-75.5 334.5,-75.5 334.5,-56.5 233.5,-56.5"/>
<text text-anchor="middle" x="284" y="-63.5" font-family="Helvetica,sans-Serif" font-size="10.00">IGraphicsPathBase</text>
</a>
</g>
</g>
<!-- Node1&#45;&gt;Node5 -->
<g id="edge4" class="edge"><title>Node1&#45;&gt;Node5</title>
<path fill="none" stroke="midnightblue" d="M228.576,-106.38C242.312,-96.6204 259.925,-84.1057 271.567,-75.8339"/>
<polygon fill="midnightblue" stroke="midnightblue" points="226.335,-103.679 220.211,-112.324 230.39,-109.385 226.335,-103.679"/>
</g>
<!-- Node3 -->
<g id="node3" class="node"><title>Node3</title>
<g id="a_node3"><a xlink:href="class_i_graphics_mac.html" target="_top" xlink:title="IGraphics platform class for macOS. ">
<polygon fill="white" stroke="black" points="-0.5,-0.5 -0.5,-19.5 76.5,-19.5 76.5,-0.5 -0.5,-0.5"/>
<text text-anchor="middle" x="38" y="-7.5" font-family="Helvetica,sans-Serif" font-size="10.00">IGraphicsMac</text>
</a>
</g>
</g>
<!-- Node2&#45;&gt;Node3 -->
<g id="edge2" class="edge"><title>Node2&#45;&gt;Node3</title>
<path fill="none" stroke="midnightblue" d="M108.682,-51.1774C91.2012,-41.2407 68.1699,-28.1492 53.2255,-19.6545"/>
<polygon fill="midnightblue" stroke="midnightblue" points="107.313,-54.425 117.737,-56.324 110.773,-48.3395 107.313,-54.425"/>
</g>
<!-- Node4 -->
<g id="node4" class="node"><title>Node4</title>
<g id="a_node4"><a xlink:href="class_i_graphics_win.html" target="_top" xlink:title="IGraphics platform class for Windows. ">
<polygon fill="white" stroke="black" points="95,-0.5 95,-19.5 171,-19.5 171,-0.5 95,-0.5"/>
<text text-anchor="middle" x="133" y="-7.5" font-family="Helvetica,sans-Serif" font-size="10.00">IGraphicsWin</text>
</a>
</g>
</g>
<!-- Node2&#45;&gt;Node4 -->
<g id="edge3" class="edge"><title>Node2&#45;&gt;Node4</title>
<path fill="none" stroke="midnightblue" d="M133,-45.8045C133,-36.9102 133,-26.7798 133,-19.7511"/>
<polygon fill="midnightblue" stroke="midnightblue" points="129.5,-46.083 133,-56.083 136.5,-46.083 129.5,-46.083"/>
</g>
<!-- Node6 -->
<g id="node6" class="node"><title>Node6</title>
<g id="a_node6"><a xlink:href="class_i_graphics_a_g_g.html" target="_top" xlink:title="IGraphics draw class using Antigrain Geometry. ">
<polygon fill="white" stroke="black" points="189,-0.5 189,-19.5 269,-19.5 269,-0.5 189,-0.5"/>
<text text-anchor="middle" x="229" y="-7.5" font-family="Helvetica,sans-Serif" font-size="10.00">IGraphicsAGG</text>
</a>
</g>
</g>
<!-- Node5&#45;&gt;Node6 -->
<g id="edge5" class="edge"><title>Node5&#45;&gt;Node6</title>
<path fill="none" stroke="midnightblue" d="M267.706,-49.0024C257.959,-39.4329 245.947,-27.6389 237.913,-19.7511"/>
<polygon fill="midnightblue" stroke="midnightblue" points="265.33,-51.5746 274.918,-56.083 270.234,-46.5796 265.33,-51.5746"/>
</g>
<!-- Node7 -->
<g id="node7" class="node"><title>Node7</title>
<g id="a_node7"><a xlink:href="class_i_graphics_cairo.html" target="_top" xlink:title="IGraphics draw class using Cairo. ">
<polygon fill="white" stroke="black" points="287,-0.5 287,-19.5 369,-19.5 369,-0.5 287,-0.5"/>
<text text-anchor="middle" x="328" y="-7.5" font-family="Helvetica,sans-Serif" font-size="10.00">IGraphicsCairo</text>
</a>
</g>
</g>
<!-- Node5&#45;&gt;Node7 -->
<g id="edge6" class="edge"><title>Node5&#45;&gt;Node7</title>
<path fill="none" stroke="midnightblue" d="M297.735,-48.144C305.401,-38.7357 314.633,-27.4046 320.869,-19.7511"/>
<polygon fill="midnightblue" stroke="midnightblue" points="294.869,-46.1198 291.266,-56.083 300.296,-50.5415 294.869,-46.1198"/>
</g>
<!-- Node8 -->
<g id="node8" class="node"><title>Node8</title>
<g id="a_node8"><a xlink:href="class_i_graphics_nano_v_g.html" target="_top" xlink:title="IGraphics draw class using NanoVG. ">
<polygon fill="white" stroke="black" points="387,-0.5 387,-19.5 483,-19.5 483,-0.5 387,-0.5"/>
<text text-anchor="middle" x="435" y="-7.5" font-family="Helvetica,sans-Serif" font-size="10.00">IGraphicsNanoVG</text>
</a>
</g>
</g>
<!-- Node5&#45;&gt;Node8 -->
<g id="edge7" class="edge"><title>Node5&#45;&gt;Node8</title>
<path fill="none" stroke="midnightblue" d="M317.446,-53.0392C345.858,-42.8786 385.937,-28.5457 411.186,-19.5164"/>
<polygon fill="midnightblue" stroke="midnightblue" points="316.164,-49.7806 307.926,-56.4435 318.521,-56.3718 316.164,-49.7806"/>
</g>
</g>
</svg>
