<?xml version="1.0" encoding="UTF-8" standalone="no"?>
<!DOCTYPE svg PUBLIC "-//W3C//DTD SVG 1.1//EN"
 "http://www.w3.org/Graphics/SVG/1.1/DTD/svg11.dtd">
<!-- Generated by graphviz version 2.36.0 (20140111.2315)
 -->
<!-- Title: Graphical Class Hierarchy Pages: 1 -->
<svg width="338pt" height="180pt"
 viewBox="0.00 0.00 338.00 180.00" xmlns="http://www.w3.org/2000/svg" xmlns:xlink="http://www.w3.org/1999/xlink">
<g id="graph0" class="graph" transform="scale(1 1) rotate(0) translate(4 176)">
<title>Graphical Class Hierarchy</title>
<polygon fill="white" stroke="none" points="-4,4 -4,-176 334,-176 334,4 -4,4"/>
<!-- Node1 -->
<g id="node1" class="node"><title>Node1</title>
<g id="a_node1"><a xlink:href="class_i_graphics.html" target="_top" xlink:title="The lowest level base class of an IGraphics context. ">
<polygon fill="white" stroke="black" points="0.5,-95.5 0.5,-114.5 59.5,-114.5 59.5,-95.5 0.5,-95.5"/>
<text text-anchor="middle" x="30" y="-102.5" font-family="Helvetica,sans-Serif" font-size="10.00">IGraphics</text>
</a>
</g>
</g>
<!-- Node2 -->
<g id="node2" class="node"><title>Node2</title>
<g id="a_node2"><a xlink:href="class_i_graphics_lice.html" target="_top" xlink:title="IGraphics draw class using Cockos&#39; LICE. ">
<polygon fill="white" stroke="black" points="108.5,-114.5 108.5,-133.5 185.5,-133.5 185.5,-114.5 108.5,-114.5"/>
<text text-anchor="middle" x="147" y="-121.5" font-family="Helvetica,sans-Serif" font-size="10.00">IGraphicsLice</text>
</a>
</g>
</g>
<!-- Node1&#45;&gt;Node2 -->
<g id="edge1" class="edge"><title>Node1&#45;&gt;Node2</title>
<path fill="none" stroke="midnightblue" d="M69.7503,-111.402C82.1217,-113.446 95.7933,-115.705 108.103,-117.739"/>
<polygon fill="midnightblue" stroke="midnightblue" points="70.1595,-107.922 59.7227,-109.745 69.0184,-114.829 70.1595,-107.922"/>
</g>
<!-- Node5 -->
<g id="node5" class="node"><title>Node5</title>
<g id="a_node5"><a xlink:href="class_i_graphics_path_base.html" target="_top" xlink:title="IGraphicsPathBase">
<polygon fill="white" stroke="black" points="96.5,-57.5 96.5,-76.5 197.5,-76.5 197.5,-57.5 96.5,-57.5"/>
<text text-anchor="middle" x="147" y="-64.5" font-family="Helvetica,sans-Serif" font-size="10.00">IGraphicsPathBase</text>
</a>
</g>
</g>
<!-- Node1&#45;&gt;Node5 -->
<g id="edge4" class="edge"><title>Node1&#45;&gt;Node5</title>
<path fill="none" stroke="midnightblue" d="M69.602,-92.2446C85.1767,-87.0981 102.833,-81.264 117.245,-76.5017"/>
<polygon fill="midnightblue" stroke="midnightblue" points="68.1196,-89.0482 59.7227,-95.509 70.3159,-95.6947 68.1196,-89.0482"/>
</g>
<!-- Node3 -->
<g id="node3" class="node"><title>Node3</title>
<g id="a_node3"><a xlink:href="class_i_graphics_mac.html" target="_top" xlink:title="IGraphics platform class for macOS. ">
<polygon fill="white" stroke="black" points="243.5,-152.5 243.5,-171.5 320.5,-171.5 320.5,-152.5 243.5,-152.5"/>
<text text-anchor="middle" x="282" y="-159.5" font-family="Helvetica,sans-Serif" font-size="10.00">IGraphicsMac</text>
</a>
</g>
</g>
<!-- Node2&#45;&gt;Node3 -->
<g id="edge2" class="edge"><title>Node2&#45;&gt;Node3</title>
<path fill="none" stroke="midnightblue" d="M191.367,-136.391C209.581,-141.594 230.439,-147.554 247.449,-152.414"/>
<polygon fill="midnightblue" stroke="midnightblue" points="192.138,-132.971 181.562,-133.589 190.215,-139.702 192.138,-132.971"/>
</g>
<!-- Node4 -->
<g id="node4" class="node"><title>Node4</title>
<g id="a_node4"><a xlink:href="class_i_graphics_win.html" target="_top" xlink:title="IGraphics platform class for Windows. ">
<polygon fill="white" stroke="black" points="244,-114.5 244,-133.5 320,-133.5 320,-114.5 244,-114.5"/>
<text text-anchor="middle" x="282" y="-121.5" font-family="Helvetica,sans-Serif" font-size="10.00">IGraphicsWin</text>
</a>
</g>
</g>
<!-- Node2&#45;&gt;Node4 -->
<g id="edge3" class="edge"><title>Node2&#45;&gt;Node4</title>
<path fill="none" stroke="midnightblue" d="M195.827,-124C211.547,-124 228.781,-124 243.609,-124"/>
<polygon fill="midnightblue" stroke="midnightblue" points="195.757,-120.5 185.757,-124 195.757,-127.5 195.757,-120.5"/>
</g>
<!-- Node6 -->
<g id="node6" class="node"><title>Node6</title>
<g id="a_node6"><a xlink:href="class_i_graphics_a_g_g.html" target="_top" xlink:title="IGraphics draw class using Antigrain Geometry. ">
<polygon fill="white" stroke="black" points="242,-76.5 242,-95.5 322,-95.5 322,-76.5 242,-76.5"/>
<text text-anchor="middle" x="282" y="-83.5" font-family="Helvetica,sans-Serif" font-size="10.00">IGraphicsAGG</text>
</a>
</g>
</g>
<!-- Node5&#45;&gt;Node6 -->
<g id="edge5" class="edge"><title>Node5&#45;&gt;Node6</title>
<path fill="none" stroke="midnightblue" d="M207.608,-75.5155C219.207,-77.1724 231.088,-78.8698 241.821,-80.4029"/>
<polygon fill="midnightblue" stroke="midnightblue" points="207.919,-72.0244 197.524,-74.0749 206.929,-78.954 207.919,-72.0244"/>
</g>
<!-- Node7 -->
<g id="node7" class="node"><title>Node7</title>
<g id="a_node7"><a xlink:href="class_i_graphics_cairo.html" target="_top" xlink:title="IGraphics draw class using Cairo. ">
<polygon fill="white" stroke="black" points="241,-38.5 241,-57.5 323,-57.5 323,-38.5 241,-38.5"/>
<text text-anchor="middle" x="282" y="-45.5" font-family="Helvetica,sans-Serif" font-size="10.00">IGraphicsCairo</text>
</a>
</g>
</g>
<!-- Node5&#45;&gt;Node7 -->
<g id="edge6" class="edge"><title>Node5&#45;&gt;Node7</title>
<path fill="none" stroke="midnightblue" d="M207.747,-58.4647C218.999,-56.8574 230.511,-55.2127 240.977,-53.7175"/>
<polygon fill="midnightblue" stroke="midnightblue" points="206.929,-55.046 197.524,-59.9251 207.919,-61.9756 206.929,-55.046"/>
</g>
<!-- Node8 -->
<g id="node8" class="node"><title>Node8</title>
<g id="a_node8"><a xlink:href="class_i_graphics_nano_v_g.html" target="_top" xlink:title="IGraphics draw class using NanoVG. ">
<polygon fill="white" stroke="black" points="234,-0.5 234,-19.5 330,-19.5 330,-0.5 234,-0.5"/>
<text text-anchor="middle" x="282" y="-7.5" font-family="Helvetica,sans-Serif" font-size="10.00">IGraphicsNanoVG</text>
</a>
</g>
</g>
<!-- Node5&#45;&gt;Node8 -->
<g id="edge7" class="edge"><title>Node5&#45;&gt;Node8</title>
<path fill="none" stroke="midnightblue" d="M178.258,-53.3482C194.692,-46.0046 215.4,-36.8664 234,-29 241.458,-25.846 249.625,-22.505 257.029,-19.5189"/>
<polygon fill="midnightblue" stroke="midnightblue" points="176.818,-50.158 169.124,-57.4414 179.681,-56.5459 176.818,-50.158"/>
</g>
</g>
</svg>
